<svg width="254" height="52" viewBox="0 0 254 52" fill="none" xmlns="http://www.w3.org/2000/svg">
<mask id="path-1-outside-1_181_1063" maskUnits="userSpaceOnUse" x="0" y="0" width="254" height="52" fill="black">
<rect fill="white" width="254" height="52"/>
<path d="M11.52 39.192V30.84H17.28C18.784 30.84 20.128 30.632 21.312 30.216C22.528 29.768 23.552 29.144 24.384 28.344C25.216 27.512 25.856 26.52 26.304 25.368C26.752 24.184 26.976 22.856 26.976 21.384C26.976 19.848 26.752 18.504 26.304 17.352C25.856 16.168 25.216 15.192 24.384 14.424C23.552 13.624 22.528 13.032 21.312 12.648C20.128 12.232 18.784 12.024 17.28 12.024H11.52V3.672H16.896C20.064 3.672 22.832 4.12 25.2 5.016C27.6 5.912 29.6 7.16 31.2 8.76C32.8 10.328 34 12.152 34.8 14.232C35.6 16.312 36 18.52 36 20.856V21.912C36 24.056 35.6 26.168 34.8 28.248C34 30.296 32.8 32.152 31.2 33.816C29.6 35.448 27.6 36.76 25.2 37.752C22.832 38.712 20.064 39.192 16.896 39.192H11.52ZM3.552 39.192V3.672H12.48V39.192H3.552ZM51.9994 39.96C49.7594 39.96 47.7754 39.576 46.0474 38.808C44.3194 38.04 42.8634 37 41.6794 35.688C40.4954 34.376 39.5834 32.904 38.9434 31.272C38.3354 29.64 38.0314 27.96 38.0314 26.232V25.272C38.0314 23.48 38.3354 21.768 38.9434 20.136C39.5834 18.472 40.4794 17 41.6314 15.72C42.8154 14.44 44.2554 13.432 45.9514 12.696C47.6474 11.928 49.5674 11.544 51.7114 11.544C54.5594 11.544 56.9754 12.184 58.9594 13.464C60.9434 14.744 62.4634 16.44 63.5194 18.552C64.5754 20.632 65.1034 22.904 65.1034 25.368V28.152H41.6794V23.448H60.0634L57.0394 25.56C57.0394 24.056 56.8314 22.792 56.4154 21.768C56.0314 20.712 55.4394 19.912 54.6394 19.368C53.8714 18.824 52.8954 18.552 51.7114 18.552C50.5594 18.552 49.5514 18.824 48.6874 19.368C47.8554 19.88 47.2154 20.68 46.7674 21.768C46.3194 22.824 46.0954 24.168 46.0954 25.8C46.0954 27.272 46.3034 28.552 46.7194 29.64C47.1354 30.696 47.7754 31.512 48.6394 32.088C49.5034 32.664 50.6234 32.952 51.9994 32.952C53.2154 32.952 54.2074 32.744 54.9754 32.328C55.7754 31.912 56.3354 31.352 56.6554 30.648H64.6234C64.2394 32.44 63.4714 34.04 62.3194 35.448C61.1994 36.856 59.7594 37.96 57.9994 38.76C56.2714 39.56 54.2714 39.96 51.9994 39.96ZM73.4588 39L65.8748 12.504H74.8028L81.8588 39H73.4588ZM76.2428 39V31.704H84.7388V39H76.2428ZM79.3148 39L85.3148 12.504H93.6668L87.1388 39H79.3148ZM108.533 39.96C106.293 39.96 104.309 39.576 102.581 38.808C100.853 38.04 99.3965 37 98.2125 35.688C97.0285 34.376 96.1165 32.904 95.4765 31.272C94.8685 29.64 94.5645 27.96 94.5645 26.232V25.272C94.5645 23.48 94.8685 21.768 95.4765 20.136C96.1165 18.472 97.0125 17 98.1645 15.72C99.3485 14.44 100.789 13.432 102.485 12.696C104.181 11.928 106.101 11.544 108.245 11.544C111.093 11.544 113.509 12.184 115.493 13.464C117.477 14.744 118.997 16.44 120.053 18.552C121.109 20.632 121.637 22.904 121.637 25.368V28.152H98.2125V23.448H116.597L113.573 25.56C113.573 24.056 113.365 22.792 112.949 21.768C112.565 20.712 111.973 19.912 111.173 19.368C110.405 18.824 109.429 18.552 108.245 18.552C107.093 18.552 106.085 18.824 105.221 19.368C104.389 19.88 103.749 20.68 103.301 21.768C102.853 22.824 102.629 24.168 102.629 25.8C102.629 27.272 102.837 28.552 103.253 29.64C103.669 30.696 104.309 31.512 105.173 32.088C106.037 32.664 107.157 32.952 108.533 32.952C109.749 32.952 110.741 32.744 111.509 32.328C112.309 31.912 112.869 31.352 113.189 30.648H121.157C120.773 32.44 120.005 34.04 118.853 35.448C117.733 36.856 116.293 37.96 114.533 38.76C112.805 39.56 110.805 39.96 108.533 39.96ZM125.665 39V3.96H134.401V39H125.665ZM122.689 10.296V3.96H134.401V10.296H122.689ZM153.084 39.96C150.748 39.96 148.668 39.608 146.844 38.904C145.02 38.2 143.468 37.224 142.188 35.976C140.94 34.728 139.98 33.288 139.308 31.656C138.668 30.024 138.348 28.28 138.348 26.424V25.272C138.348 23.352 138.684 21.56 139.356 19.896C140.06 18.232 141.052 16.776 142.332 15.528C143.612 14.28 145.164 13.304 146.988 12.6C148.812 11.896 150.844 11.544 153.084 11.544C155.356 11.544 157.388 11.896 159.18 12.6C161.004 13.304 162.556 14.28 163.836 15.528C165.116 16.776 166.092 18.232 166.764 19.896C167.468 21.56 167.82 23.352 167.82 25.272V26.424C167.82 28.28 167.484 30.024 166.812 31.656C166.172 33.288 165.212 34.728 163.932 35.976C162.684 37.224 161.148 38.2 159.324 38.904C157.5 39.608 155.42 39.96 153.084 39.96ZM153.084 32.664C154.428 32.664 155.532 32.376 156.396 31.8C157.292 31.224 157.964 30.424 158.412 29.4C158.86 28.344 159.084 27.16 159.084 25.848C159.084 24.472 158.844 23.272 158.364 22.248C157.916 21.192 157.244 20.36 156.348 19.752C155.452 19.144 154.364 18.84 153.084 18.84C151.804 18.84 150.716 19.144 149.82 19.752C148.924 20.36 148.236 21.192 147.756 22.248C147.308 23.272 147.084 24.472 147.084 25.848C147.084 27.16 147.308 28.344 147.756 29.4C148.204 30.424 148.876 31.224 149.772 31.8C150.668 32.376 151.772 32.664 153.084 32.664ZM171.642 48.6V12.504H178.554V23.928H177.786C177.882 21.336 178.394 19.128 179.322 17.304C180.282 15.48 181.578 14.104 183.21 13.176C184.842 12.216 186.714 11.736 188.826 11.736C190.65 11.736 192.298 12.072 193.77 12.744C195.242 13.384 196.506 14.312 197.562 15.528C198.618 16.712 199.418 18.12 199.962 19.752C200.538 21.384 200.826 23.176 200.826 25.128V26.28C200.826 28.232 200.57 30.04 200.058 31.704C199.546 33.336 198.778 34.776 197.754 36.024C196.73 37.24 195.466 38.184 193.962 38.856C192.49 39.528 190.794 39.864 188.874 39.864C186.826 39.864 185.018 39.464 183.45 38.664C181.882 37.832 180.634 36.6 179.706 34.968C178.81 33.304 178.33 31.224 178.266 28.728L180.378 31.32V48.6H171.642ZM186.234 32.664C187.386 32.664 188.394 32.376 189.258 31.8C190.154 31.192 190.842 30.36 191.322 29.304C191.834 28.248 192.09 27.048 192.09 25.704C192.09 24.328 191.834 23.144 191.322 22.152C190.842 21.128 190.17 20.344 189.306 19.8C188.442 19.224 187.418 18.936 186.234 18.936C185.178 18.936 184.186 19.176 183.258 19.656C182.362 20.136 181.626 20.84 181.05 21.768C180.474 22.696 180.186 23.816 180.186 25.128V26.76C180.186 28.008 180.49 29.08 181.098 29.976C181.706 30.84 182.474 31.512 183.402 31.992C184.33 32.44 185.274 32.664 186.234 32.664ZM217.099 39.96C214.859 39.96 212.875 39.576 211.147 38.808C209.419 38.04 207.963 37 206.779 35.688C205.595 34.376 204.683 32.904 204.043 31.272C203.435 29.64 203.131 27.96 203.131 26.232V25.272C203.131 23.48 203.435 21.768 204.043 20.136C204.683 18.472 205.579 17 206.731 15.72C207.915 14.44 209.355 13.432 211.051 12.696C212.747 11.928 214.667 11.544 216.811 11.544C219.659 11.544 222.075 12.184 224.059 13.464C226.043 14.744 227.563 16.44 228.619 18.552C229.675 20.632 230.203 22.904 230.203 25.368V28.152H206.779V23.448H225.163L222.139 25.56C222.139 24.056 221.931 22.792 221.515 21.768C221.131 20.712 220.539 19.912 219.739 19.368C218.971 18.824 217.995 18.552 216.811 18.552C215.659 18.552 214.651 18.824 213.787 19.368C212.955 19.88 212.315 20.68 211.867 21.768C211.419 22.824 211.195 24.168 211.195 25.8C211.195 27.272 211.403 28.552 211.819 29.64C212.235 30.696 212.875 31.512 213.739 32.088C214.603 32.664 215.723 32.952 217.099 32.952C218.315 32.952 219.307 32.744 220.075 32.328C220.875 31.912 221.435 31.352 221.755 30.648H229.723C229.339 32.44 228.571 34.04 227.419 35.448C226.299 36.856 224.859 37.96 223.099 38.76C221.371 39.56 219.371 39.96 217.099 39.96ZM233.847 39V12.504H240.759V24.024H240.663C240.663 20.312 241.431 17.4 242.967 15.288C244.535 13.176 246.775 12.12 249.687 12.12H250.743V19.608H248.727C246.775 19.608 245.255 20.136 244.167 21.192C243.111 22.248 242.583 23.768 242.583 25.752V39H233.847Z"/>
</mask>
<path d="M11.52 39.192H8.52V42.192H11.52V39.192ZM11.52 30.84V27.84H8.52V30.84H11.52ZM21.312 30.216L22.3065 33.0464L22.3278 33.0389L22.3491 33.031L21.312 30.216ZM24.384 28.344L26.4633 30.5065L26.4845 30.4861L26.5053 30.4653L24.384 28.344ZM26.304 25.368L29.1 26.4553L29.105 26.4425L29.1099 26.4297L26.304 25.368ZM26.304 17.352L23.4981 18.4137L23.503 18.4265L23.508 18.4393L26.304 17.352ZM24.384 14.424L22.3047 16.5865L22.3267 16.6077L22.3492 16.6284L24.384 14.424ZM21.312 12.648L20.3175 15.4784L20.3628 15.4943L20.4086 15.5087L21.312 12.648ZM11.52 12.024H8.52V15.024H11.52V12.024ZM11.52 3.672V0.671997H8.52V3.672H11.52ZM25.2 5.016L24.1383 7.82189L24.1507 7.82652L25.2 5.016ZM31.2 8.76L29.0787 10.8813L29.0894 10.892L29.1002 10.9026L31.2 8.76ZM34.8 14.232L32 15.3089L32 15.3089L34.8 14.232ZM34.8 28.248L37.5944 29.3396L37.5972 29.3323L37.6 29.3249L34.8 28.248ZM31.2 33.816L33.3422 35.9162L33.3524 35.9058L33.3625 35.8953L31.2 33.816ZM25.2 37.752L26.3271 40.5322L26.3366 40.5284L26.346 40.5245L25.2 37.752ZM3.552 39.192H0.552V42.192H3.552V39.192ZM3.552 3.672V0.671997H0.552V3.672H3.552ZM12.48 3.672H15.48V0.671997H12.48V3.672ZM12.48 39.192V42.192H15.48V39.192H12.48ZM14.52 39.192V30.84H8.52V39.192H14.52ZM11.52 33.84H17.28V27.84H11.52V33.84ZM17.28 33.84C19.0574 33.84 20.7466 33.5944 22.3065 33.0464L20.3175 27.3856C19.5094 27.6696 18.5106 27.84 17.28 27.84V33.84ZM22.3491 33.031C23.9061 32.4574 25.2981 31.6269 26.4633 30.5065L22.3047 26.1815C21.8059 26.6611 21.1499 27.0786 20.2749 27.401L22.3491 33.031ZM26.5053 30.4653C27.6463 29.3244 28.509 27.9751 29.1 26.4553L23.508 24.2807C23.203 25.0649 22.7857 25.6996 22.2627 26.2227L26.5053 30.4653ZM29.1099 26.4297C29.7053 24.8561 29.976 23.1607 29.976 21.384H23.976C23.976 22.5513 23.7987 23.5119 23.4981 24.3063L29.1099 26.4297ZM29.976 21.384C29.976 19.5631 29.7111 17.8361 29.1 16.2647L23.508 18.4393C23.7929 19.1719 23.976 20.1329 23.976 21.384H29.976ZM29.1099 16.2903C28.5167 14.7227 27.6317 13.3391 26.4188 12.2196L22.3492 16.6284C22.8003 17.0449 23.1953 17.6133 23.4981 18.4137L29.1099 16.2903ZM26.4633 12.2615C25.2647 11.109 23.8251 10.2956 22.2154 9.78725L20.4086 15.5087C21.2309 15.7684 21.8393 16.139 22.3047 16.5865L26.4633 12.2615ZM22.3065 9.81762C20.7466 9.26958 19.0574 9.024 17.28 9.024V15.024C18.5106 15.024 19.5094 15.1944 20.3175 15.4784L22.3065 9.81762ZM17.28 9.024H11.52V15.024H17.28V9.024ZM14.52 12.024V3.672H8.52V12.024H14.52ZM11.52 6.672H16.896V0.671997H11.52V6.672ZM16.896 6.672C19.7889 6.672 22.1828 7.08194 24.1383 7.82186L26.2617 2.21014C23.4812 1.15805 20.3391 0.671997 16.896 0.671997V6.672ZM24.1507 7.82652C26.2014 8.59211 27.8203 9.62298 29.0787 10.8813L33.3213 6.63868C31.3797 4.69702 28.9986 3.23189 26.2493 2.20548L24.1507 7.82652ZM29.1002 10.9026C30.3948 12.1713 31.3552 13.6324 32 15.3089L37.6 13.1551C36.6449 10.6716 35.2052 8.48468 33.2998 6.61736L29.1002 10.9026ZM32 15.3089C32.6615 17.0289 33 18.8702 33 20.856H39C39 18.1698 38.5385 15.5951 37.6 13.1551L32 15.3089ZM33 20.856V21.912H39V20.856H33ZM33 21.912C33 23.6733 32.6731 25.421 32 27.1711L37.6 29.3249C38.5269 26.915 39 24.4387 39 21.912H33ZM32.0056 27.1564C31.3563 28.8186 30.3778 30.3427 29.0375 31.7367L33.3625 35.8953C35.2222 33.9613 36.6437 31.7734 37.5944 29.3396L32.0056 27.1564ZM29.0578 31.7158C27.7772 33.022 26.1308 34.1211 24.054 34.9795L26.346 40.5245C29.0692 39.3989 31.4228 37.874 33.3422 35.9162L29.0578 31.7158ZM24.0729 34.9718C22.1376 35.7564 19.7673 36.192 16.896 36.192V42.192C20.3607 42.192 23.5265 41.6676 26.3271 40.5322L24.0729 34.9718ZM16.896 36.192H11.52V42.192H16.896V36.192ZM6.552 39.192V3.672H0.552V39.192H6.552ZM3.552 6.672H12.48V0.671997H3.552V6.672ZM9.48 3.672V39.192H15.48V3.672H9.48ZM12.48 36.192H3.552V42.192H12.48V36.192ZM46.0474 38.808L44.829 41.5494L46.0474 38.808ZM41.6794 35.688L43.9066 33.6781V33.6781L41.6794 35.688ZM38.9434 31.272L36.1321 32.3193L36.1411 32.3434L36.1505 32.3673L38.9434 31.272ZM38.9434 20.136L36.1433 19.0591L36.1377 19.0738L36.1321 19.0887L38.9434 20.136ZM41.6314 15.72L39.4291 13.6829L39.4152 13.6979L39.4015 13.7131L41.6314 15.72ZM45.9514 12.696L47.1457 15.448L47.1674 15.4386L47.1889 15.4289L45.9514 12.696ZM58.9594 13.464L57.333 15.9849L58.9594 13.464ZM63.5194 18.552L60.8361 19.8936L60.8402 19.9019L60.8444 19.9101L63.5194 18.552ZM65.1034 28.152V31.152H68.1034V28.152H65.1034ZM41.6794 28.152H38.6794V31.152H41.6794V28.152ZM41.6794 23.448V20.448H38.6794V23.448H41.6794ZM60.0634 23.448L61.7811 25.9075L69.5982 20.448H60.0634V23.448ZM57.0394 25.56H54.0394V31.3145L58.7571 28.0195L57.0394 25.56ZM56.4154 21.768L53.596 22.7932L53.615 22.8455L53.636 22.8971L56.4154 21.768ZM54.6394 19.368L52.9053 21.8161L52.9287 21.8327L52.9524 21.8488L54.6394 19.368ZM48.6874 19.368L50.2597 21.923L50.2728 21.9149L50.2858 21.9067L48.6874 19.368ZM46.7674 21.768L49.5291 22.9396L49.5353 22.925L49.5414 22.9102L46.7674 21.768ZM46.7194 29.64L43.9172 30.7114L43.9226 30.7255L43.9282 30.7396L46.7194 29.64ZM48.6394 32.088L50.3035 29.5919V29.5918L48.6394 32.088ZM54.9754 32.328L53.5913 29.6663L53.5688 29.678L53.5465 29.6901L54.9754 32.328ZM56.6554 30.648V27.648H54.7236L53.9243 29.4066L56.6554 30.648ZM64.6234 30.648L67.5568 31.2766L68.3343 27.648H64.6234V30.648ZM62.3194 35.448L59.9975 33.5483L59.9844 33.5643L59.9716 33.5804L62.3194 35.448ZM57.9994 38.76L56.758 36.0289L56.7485 36.0332L56.739 36.0376L57.9994 38.76ZM51.9994 36.96C50.1027 36.96 48.5461 36.6356 47.2658 36.0666L44.829 41.5494C47.0047 42.5164 49.416 42.96 51.9994 42.96V36.96ZM47.2658 36.0666C45.8943 35.457 44.7899 34.6569 43.9066 33.6781L39.4522 37.6979C40.9369 39.3431 42.7445 40.623 44.829 41.5494L47.2658 36.0666ZM43.9066 33.6781C42.9627 32.6322 42.2433 31.4695 41.7363 30.1767L36.1505 32.3673C36.9235 34.3385 38.0281 36.1198 39.4522 37.6979L43.9066 33.6781ZM41.7546 30.2247C41.2705 28.9251 41.0314 27.5996 41.0314 26.232H35.0314C35.0314 28.3204 35.4003 30.3549 36.1321 32.3193L41.7546 30.2247ZM41.0314 26.232V25.272H35.0314V26.232H41.0314ZM41.0314 25.272C41.0314 23.827 41.2751 22.4705 41.7546 21.1833L36.1321 19.0887C35.3957 21.0655 35.0314 23.133 35.0314 25.272H41.0314ZM41.7434 21.2129C42.2565 19.8789 42.9632 18.7247 43.8613 17.7269L39.4015 13.7131C37.9956 15.2753 36.9102 17.0651 36.1433 19.0591L41.7434 21.2129ZM43.8337 17.7571C44.7181 16.801 45.8082 16.0284 47.1457 15.448L44.7571 9.94396C42.7026 10.8356 40.9127 12.079 39.4291 13.6829L43.8337 17.7571ZM47.1889 15.4289C48.4414 14.8617 49.9298 14.544 51.7114 14.544V8.544C49.205 8.544 46.8534 8.99431 44.7139 9.96314L47.1889 15.4289ZM51.7114 14.544C54.1026 14.544 55.9257 15.077 57.333 15.9849L60.5858 10.9431C58.025 9.29103 55.0161 8.544 51.7114 8.544V14.544ZM57.333 15.9849C58.8654 16.9735 60.0204 18.2622 60.8361 19.8936L66.2027 17.2104C64.9064 14.6178 63.0214 12.5145 60.5858 10.9431L57.333 15.9849ZM60.8444 19.9101C61.6747 21.5456 62.1034 23.3486 62.1034 25.368H68.1034C68.1034 22.4594 67.4761 19.7184 66.1944 17.1939L60.8444 19.9101ZM62.1034 25.368V28.152H68.1034V25.368H62.1034ZM65.1034 25.152H41.6794V31.152H65.1034V25.152ZM44.6794 28.152V23.448H38.6794V28.152H44.6794ZM41.6794 26.448H60.0634V20.448H41.6794V26.448ZM58.3456 20.9885L55.3216 23.1005L58.7571 28.0195L61.7811 25.9075L58.3456 20.9885ZM60.0394 25.56C60.0394 23.7998 59.7987 22.1256 59.1948 20.6389L53.636 22.8971C53.864 23.4584 54.0394 24.3122 54.0394 25.56H60.0394ZM59.2348 20.7428C58.6714 19.1936 57.728 17.8404 56.3263 16.8872L52.9524 21.8488C53.1508 21.9836 53.3913 22.2304 53.596 22.7932L59.2348 20.7428ZM56.3734 16.9199C54.9811 15.9337 53.3553 15.552 51.7114 15.552V21.552C52.4355 21.552 52.7617 21.7143 52.9053 21.8161L56.3734 16.9199ZM51.7114 15.552C50.0683 15.552 48.491 15.9465 47.0889 16.8293L50.2858 21.9067C50.6117 21.7015 51.0504 21.552 51.7114 21.552V15.552ZM47.1151 16.813C45.6404 17.7205 44.6322 19.0743 43.9933 20.6257L49.5414 22.9102C49.7986 22.2857 50.0703 22.0395 50.2597 21.923L47.1151 16.813ZM44.0056 20.5963C43.3488 22.1446 43.0954 23.9228 43.0954 25.8H49.0954C49.0954 24.4132 49.2899 23.5034 49.5291 22.9396L44.0056 20.5963ZM43.0954 25.8C43.0954 27.5456 43.341 29.2044 43.9172 30.7114L49.5215 28.5686C49.2657 27.8996 49.0954 26.9984 49.0954 25.8H43.0954ZM43.9282 30.7396C44.5467 32.3097 45.5544 33.6369 46.9753 34.5842L50.3035 29.5918C49.9964 29.3871 49.7241 29.0823 49.5106 28.5404L43.9282 30.7396ZM46.9753 34.5841C48.4689 35.5799 50.2202 35.952 51.9994 35.952V29.952C51.0265 29.952 50.5379 29.7481 50.3035 29.5919L46.9753 34.5841ZM51.9994 35.952C53.529 35.952 55.0592 35.6944 56.4042 34.9659L53.5465 29.6901C53.3556 29.7936 52.9017 29.952 51.9994 29.952V35.952ZM56.3594 34.9897C57.6515 34.3178 58.7444 33.3021 59.3865 31.8894L53.9243 29.4066C53.9167 29.4232 53.9059 29.4428 53.8741 29.4747C53.8384 29.5103 53.7564 29.5805 53.5913 29.6663L56.3594 34.9897ZM56.6554 33.648H64.6234V27.648H56.6554V33.648ZM61.69 30.0194C61.4051 31.3487 60.8452 32.5122 59.9975 33.5483L64.6413 37.3477C66.0975 35.5678 67.0736 33.5313 67.5568 31.2766L61.69 30.0194ZM59.9716 33.5804C59.1687 34.5898 58.119 35.4102 56.758 36.0289L59.2408 41.4911C61.3997 40.5098 63.2301 39.1222 64.6672 37.3156L59.9716 33.5804ZM56.739 36.0376C55.4749 36.6228 53.919 36.96 51.9994 36.96V42.96C54.6237 42.96 57.0678 42.4972 59.2597 41.4824L56.739 36.0376ZM73.4588 39L70.5746 39.8255L71.197 42H73.4588V39ZM65.8747 12.504V9.504H61.8956L62.9906 13.3295L65.8747 12.504ZM74.8027 12.504L77.7017 11.732L77.1084 9.504H74.8027V12.504ZM81.8587 39V42H85.7622L84.7577 38.228L81.8587 39ZM76.2428 39H73.2428V42H76.2428V39ZM76.2428 31.704V28.704H73.2428V31.704H76.2428ZM84.7388 31.704H87.7388V28.704H84.7388V31.704ZM84.7388 39V42H87.7388V39H84.7388ZM79.3148 39L76.3888 38.3374L75.5594 42H79.3148V39ZM85.3148 12.504V9.504H82.9181L82.3888 11.8414L85.3148 12.504ZM93.6668 12.504L96.5796 13.2217L97.4956 9.504H93.6668V12.504ZM87.1388 39V42H89.4893L90.0516 39.7177L87.1388 39ZM76.3429 38.1745L68.7589 11.6785L62.9906 13.3295L70.5746 39.8255L76.3429 38.1745ZM65.8747 15.504H74.8027V9.504H65.8747V15.504ZM71.9038 13.276L78.9598 39.772L84.7577 38.228L77.7017 11.732L71.9038 13.276ZM81.8587 36H73.4588V42H81.8587V36ZM79.2428 39V31.704H73.2428V39H79.2428ZM76.2428 34.704H84.7388V28.704H76.2428V34.704ZM81.7388 31.704V39H87.7388V31.704H81.7388ZM84.7388 36H76.2428V42H84.7388V36ZM82.2407 39.6626L88.2407 13.1666L82.3888 11.8414L76.3888 38.3374L82.2407 39.6626ZM85.3148 15.504H93.6668V9.504H85.3148V15.504ZM90.7539 11.7863L84.2259 38.2823L90.0516 39.7177L96.5796 13.2217L90.7539 11.7863ZM87.1388 36H79.3148V42H87.1388V36ZM102.581 38.808L101.362 41.5494L102.581 38.808ZM98.2125 35.688L100.44 33.6781V33.6781L98.2125 35.688ZM95.4765 31.272L92.6653 32.3193L92.6742 32.3434L92.6836 32.3673L95.4765 31.272ZM95.4765 20.136L92.6765 19.0591L92.6708 19.0738L92.6653 19.0887L95.4765 20.136ZM98.1645 15.72L95.9622 13.6829L95.9483 13.6979L95.9346 13.7131L98.1645 15.72ZM102.485 12.696L103.679 15.448L103.7 15.4386L103.722 15.4289L102.485 12.696ZM115.493 13.464L113.866 15.9849H113.866L115.493 13.464ZM120.053 18.552L117.369 19.8936L117.373 19.9019L117.378 19.9101L120.053 18.552ZM121.637 28.152V31.152H124.637V28.152H121.637ZM98.2125 28.152H95.2125V31.152H98.2125V28.152ZM98.2125 23.448V20.448H95.2125V23.448H98.2125ZM116.597 23.448L118.314 25.9075L126.131 20.448H116.597V23.448ZM113.573 25.56H110.573V31.3145L115.29 28.0195L113.573 25.56ZM112.949 21.768L110.129 22.7932L110.148 22.8455L110.169 22.8971L112.949 21.768ZM111.173 19.368L109.438 21.8161L109.462 21.8327L109.486 21.8488L111.173 19.368ZM105.221 19.368L106.793 21.923L106.806 21.9149L106.819 21.9067L105.221 19.368ZM103.301 21.768L106.062 22.9396L106.068 22.925L106.075 22.9102L103.301 21.768ZM103.253 29.64L100.45 30.7114L100.456 30.7255L100.461 30.7396L103.253 29.64ZM105.173 32.088L106.837 29.5919L106.837 29.5918L105.173 32.088ZM111.509 32.328L110.124 29.6663L110.102 29.678L110.08 29.6901L111.509 32.328ZM113.189 30.648V27.648H111.257L110.457 29.4066L113.189 30.648ZM121.157 30.648L124.09 31.2766L124.867 27.648H121.157V30.648ZM118.853 35.448L116.531 33.5483L116.518 33.5643L116.505 33.5804L118.853 35.448ZM114.533 38.76L113.291 36.0289L113.282 36.0332L113.272 36.0376L114.533 38.76ZM108.533 36.96C106.636 36.96 105.079 36.6356 103.799 36.0666L101.362 41.5494C103.538 42.5164 105.949 42.96 108.533 42.96V36.96ZM103.799 36.0666C102.427 35.457 101.323 34.6569 100.44 33.6781L95.9853 37.6979C97.47 39.3431 99.2776 40.623 101.362 41.5494L103.799 36.0666ZM100.44 33.6781C99.4958 32.6322 98.7764 31.4695 98.2694 30.1767L92.6836 32.3673C93.4566 34.3385 94.5612 36.1198 95.9853 37.6979L100.44 33.6781ZM98.2878 30.2247C97.8036 28.9251 97.5645 27.5996 97.5645 26.232H91.5645C91.5645 28.3204 91.9334 30.3549 92.6653 32.3193L98.2878 30.2247ZM97.5645 26.232V25.272H91.5645V26.232H97.5645ZM97.5645 25.272C97.5645 23.827 97.8082 22.4705 98.2878 21.1833L92.6653 19.0887C91.9288 21.0655 91.5645 23.133 91.5645 25.272H97.5645ZM98.2765 21.2129C98.7896 19.8789 99.4963 18.7247 100.394 17.7269L95.9346 13.7131C94.5287 15.2753 93.4434 17.0651 92.6765 19.0591L98.2765 21.2129ZM100.367 17.7571C101.251 16.801 102.341 16.0284 103.679 15.448L101.29 9.94396C99.2357 10.8356 97.4458 12.079 95.9622 13.6829L100.367 17.7571ZM103.722 15.4289C104.975 14.8617 106.463 14.544 108.245 14.544V8.544C105.738 8.544 103.386 8.99431 101.247 9.96314L103.722 15.4289ZM108.245 14.544C110.636 14.544 112.459 15.077 113.866 15.9849L117.119 10.9431C114.558 9.29103 111.549 8.544 108.245 8.544V14.544ZM113.866 15.9849C115.399 16.9735 116.554 18.2622 117.369 19.8936L122.736 17.2104C121.439 14.6178 119.554 12.5145 117.119 10.9431L113.866 15.9849ZM117.378 19.9101C118.208 21.5456 118.637 23.3486 118.637 25.368H124.637C124.637 22.4594 124.009 19.7184 122.728 17.1939L117.378 19.9101ZM118.637 25.368V28.152H124.637V25.368H118.637ZM121.637 25.152H98.2125V31.152H121.637V25.152ZM101.213 28.152V23.448H95.2125V28.152H101.213ZM98.2125 26.448H116.597V20.448H98.2125V26.448ZM114.879 20.9885L111.855 23.1005L115.29 28.0195L118.314 25.9075L114.879 20.9885ZM116.573 25.56C116.573 23.7998 116.332 22.1256 115.728 20.6389L110.169 22.8971C110.397 23.4584 110.573 24.3122 110.573 25.56H116.573ZM115.768 20.7428C115.205 19.1936 114.261 17.8404 112.859 16.8872L109.486 21.8488C109.684 21.9836 109.924 22.2304 110.129 22.7932L115.768 20.7428ZM112.907 16.9199C111.514 15.9337 109.888 15.552 108.245 15.552V21.552C108.969 21.552 109.295 21.7143 109.438 21.8161L112.907 16.9199ZM108.245 15.552C106.601 15.552 105.024 15.9465 103.622 16.8293L106.819 21.9067C107.145 21.7015 107.584 21.552 108.245 21.552V15.552ZM103.648 16.813C102.174 17.7205 101.165 19.0743 100.526 20.6257L106.075 22.9102C106.332 22.2857 106.603 22.0395 106.793 21.923L103.648 16.813ZM100.539 20.5963C99.8819 22.1446 99.6285 23.9228 99.6285 25.8H105.629C105.629 24.4132 105.823 23.5034 106.062 22.9396L100.539 20.5963ZM99.6285 25.8C99.6285 27.5456 99.8741 29.2044 100.45 30.7114L106.055 28.5686C105.799 27.8996 105.629 26.9984 105.629 25.8H99.6285ZM100.461 30.7396C101.08 32.3097 102.087 33.6369 103.508 34.5842L106.837 29.5918C106.53 29.3871 106.257 29.0823 106.044 28.5404L100.461 30.7396ZM103.508 34.5841C105.002 35.5799 106.753 35.952 108.533 35.952V29.952C107.56 29.952 107.071 29.7481 106.837 29.5919L103.508 34.5841ZM108.533 35.952C110.062 35.952 111.592 35.6944 112.937 34.9659L110.08 29.6901C109.889 29.7936 109.435 29.952 108.533 29.952V35.952ZM112.893 34.9897C114.185 34.3178 115.277 33.3021 115.92 31.8894L110.457 29.4066C110.45 29.4232 110.439 29.4428 110.407 29.4747C110.372 29.5103 110.29 29.5805 110.124 29.6663L112.893 34.9897ZM113.189 33.648H121.157V27.648H113.189V33.648ZM118.223 30.0194C117.938 31.3487 117.378 32.5122 116.531 33.5483L121.174 37.3477C122.631 35.5678 123.607 33.5313 124.09 31.2766L118.223 30.0194ZM116.505 33.5804C115.702 34.5898 114.652 35.4102 113.291 36.0289L115.774 41.4911C117.933 40.5098 119.763 39.1222 121.2 37.3156L116.505 33.5804ZM113.272 36.0376C112.008 36.6228 110.452 36.96 108.533 36.96V42.96C111.157 42.96 113.601 42.4972 115.793 41.4824L113.272 36.0376ZM125.665 39H122.665V42H125.665V39ZM125.665 3.96V0.959999H122.665V3.96H125.665ZM134.401 3.96H137.401V0.959999H134.401V3.96ZM134.401 39V42H137.401V39H134.401ZM122.689 10.296H119.689V13.296H122.689V10.296ZM122.689 3.96V0.959999H119.689V3.96H122.689ZM134.401 3.96H137.401V0.959999H134.401V3.96ZM134.401 10.296V13.296H137.401V10.296H134.401ZM128.665 39V3.96H122.665V39H128.665ZM125.665 6.96H134.401V0.959999H125.665V6.96ZM131.401 3.96V39H137.401V3.96H131.401ZM134.401 36H125.665V42H134.401V36ZM125.689 10.296V3.96H119.689V10.296H125.689ZM122.689 6.96H134.401V0.959999H122.689V6.96ZM131.401 3.96V10.296H137.401V3.96H131.401ZM134.401 7.296H122.689V13.296H134.401V7.296ZM146.844 38.904L147.924 36.1052L146.844 38.904ZM142.188 35.976L140.066 38.0973L140.08 38.1107L140.093 38.124L142.188 35.976ZM139.308 31.656L136.515 32.7513L136.524 32.7748L136.534 32.7982L139.308 31.656ZM139.356 19.896L136.593 18.7271L136.583 18.7498L136.574 18.7726L139.356 19.896ZM142.332 15.528L140.237 13.38V13.38L142.332 15.528ZM159.18 12.6L158.083 15.3923L158.091 15.3955L158.099 15.3988L159.18 12.6ZM163.836 15.528L161.741 17.676V17.676L163.836 15.528ZM166.764 19.896L163.982 21.0194L163.991 21.0422L164.001 21.0649L166.764 19.896ZM166.812 31.656L164.038 30.5138L164.028 30.5372L164.019 30.5607L166.812 31.656ZM163.932 35.976L161.837 33.828L161.824 33.8413L161.81 33.8547L163.932 35.976ZM159.324 38.904L158.243 36.1052L159.324 38.904ZM156.396 31.8L154.773 29.2765L154.752 29.29L154.732 29.3038L156.396 31.8ZM158.412 29.4L161.16 30.6025L161.167 30.5871L161.173 30.5716L158.412 29.4ZM158.364 22.248L155.602 23.4197L155.624 23.4709L155.647 23.5213L158.364 22.248ZM149.82 19.752L148.135 17.2696L149.82 19.752ZM147.756 22.248L145.025 21.0066L145.016 21.026L145.007 21.0455L147.756 22.248ZM147.756 29.4L144.994 30.5716L145 30.5871L145.007 30.6025L147.756 29.4ZM153.084 36.96C151.047 36.96 149.343 36.6531 147.924 36.1052L145.763 41.7028C147.992 42.5629 150.448 42.96 153.084 42.96V36.96ZM147.924 36.1052C146.443 35.5336 145.245 34.7672 144.282 33.828L140.093 38.124C141.69 39.6808 143.597 40.8664 145.763 41.7028L147.924 36.1052ZM144.309 33.8547C143.341 32.8867 142.603 31.7795 142.082 30.5137L136.534 32.7982C137.356 34.7965 138.538 36.5693 140.066 38.0973L144.309 33.8547ZM142.101 30.5607C141.605 29.2978 141.348 27.9275 141.348 26.424H135.348C135.348 28.6325 135.73 30.7502 136.515 32.7513L142.101 30.5607ZM141.348 26.424V25.272H135.348V26.424H141.348ZM141.348 25.272C141.348 23.7098 141.619 22.302 142.137 21.0194L136.574 18.7726C135.748 20.818 135.348 22.9942 135.348 25.272H141.348ZM142.119 21.0649C142.669 19.7645 143.435 18.6423 144.426 17.676L140.237 13.38C138.668 14.9097 137.451 16.6995 136.593 18.7271L142.119 21.0649ZM144.426 17.676C145.389 16.7368 146.587 15.9704 148.068 15.3988L145.907 9.80123C143.741 10.6376 141.834 11.8232 140.237 13.38L144.426 17.676ZM148.068 15.3988C149.501 14.8457 151.16 14.544 153.084 14.544V8.544C150.527 8.544 148.122 8.94632 145.907 9.80123L148.068 15.3988ZM153.084 14.544C155.046 14.544 156.697 14.8479 158.083 15.3923L160.277 9.80774C158.078 8.94415 155.665 8.544 153.084 8.544V14.544ZM158.099 15.3988C159.581 15.9704 160.778 16.7368 161.741 17.676L165.93 13.38C164.333 11.8232 162.427 10.6376 160.26 9.80123L158.099 15.3988ZM161.741 17.676C162.722 18.6326 163.465 19.7393 163.982 21.0194L169.545 18.7726C168.718 16.7247 167.509 14.9194 165.93 13.38L161.741 17.676ZM164.001 21.0649C164.539 22.3363 164.82 23.7281 164.82 25.272H170.82C170.82 22.9759 170.397 20.7837 169.527 18.7271L164.001 21.0649ZM164.82 25.272V26.424H170.82V25.272H164.82ZM164.82 26.424C164.82 27.9087 164.553 29.2626 164.038 30.5138L169.586 32.7982C170.414 30.7854 170.82 28.6513 170.82 26.424H164.82ZM164.019 30.5607C163.537 31.7882 162.819 32.8713 161.837 33.828L166.026 38.124C167.605 36.5847 168.806 34.7878 169.605 32.7513L164.019 30.5607ZM161.81 33.8547C160.889 34.7762 159.719 35.5356 158.243 36.1052L160.404 41.7028C162.576 40.8644 164.479 39.6718 166.053 38.0973L161.81 33.8547ZM158.243 36.1052C156.824 36.6531 155.12 36.96 153.084 36.96V42.96C155.719 42.96 158.175 42.5629 160.404 41.7028L158.243 36.1052ZM153.084 35.664C154.847 35.664 156.577 35.2849 158.06 34.2962L154.732 29.3038C154.487 29.4671 154.008 29.664 153.084 29.664V35.664ZM158.018 34.3235C159.437 33.4115 160.487 32.14 161.16 30.6025L155.663 28.1975C155.44 28.708 155.147 29.0365 154.773 29.2765L158.018 34.3235ZM161.173 30.5716C161.8 29.0955 162.084 27.5051 162.084 25.848H156.084C156.084 26.8149 155.92 27.5925 155.65 28.2284L161.173 30.5716ZM162.084 25.848C162.084 24.1255 161.783 22.474 161.08 20.9747L155.647 23.5213C155.904 24.07 156.084 24.8185 156.084 25.848H162.084ZM161.125 21.0763C160.466 19.522 159.435 18.2214 158.032 17.2696L154.663 22.2344C155.052 22.4986 155.365 22.862 155.602 23.4197L161.125 21.0763ZM158.032 17.2696C156.554 16.2666 154.853 15.84 153.084 15.84V21.84C153.875 21.84 154.349 22.0214 154.663 22.2344L158.032 17.2696ZM153.084 15.84C151.315 15.84 149.613 16.2666 148.135 17.2696L151.504 22.2344C151.818 22.0214 152.293 21.84 153.084 21.84V15.84ZM148.135 17.2696C146.75 18.2094 145.716 19.4858 145.025 21.0066L150.487 23.4894C150.755 22.8982 151.097 22.5106 151.504 22.2344L148.135 17.2696ZM145.007 21.0455C144.36 22.5256 144.084 24.1512 144.084 25.848H150.084C150.084 24.7928 150.256 24.0184 150.504 23.4505L145.007 21.0455ZM144.084 25.848C144.084 27.5051 144.368 29.0955 144.994 30.5716L150.517 28.2284C150.248 27.5925 150.084 26.8149 150.084 25.848H144.084ZM145.007 30.6025C145.68 32.14 146.731 33.4115 148.149 34.3235L151.394 29.2765C151.021 29.0365 150.727 28.708 150.504 28.1975L145.007 30.6025ZM148.149 34.3235C149.631 35.2758 151.33 35.664 153.084 35.664V29.664C152.213 29.664 151.705 29.4762 151.394 29.2765L148.149 34.3235ZM171.642 48.6H168.642V51.6H171.642V48.6ZM171.642 12.504V9.504H168.642V12.504H171.642ZM178.554 12.504H181.554V9.504H178.554V12.504ZM178.554 23.928V26.928H181.554V23.928H178.554ZM177.786 23.928L174.788 23.817L174.673 26.928H177.786V23.928ZM179.322 17.304L176.668 15.9068L176.658 15.9251L176.649 15.9436L179.322 17.304ZM183.21 13.176L184.693 15.7839L184.712 15.773L184.731 15.7618L183.21 13.176ZM193.77 12.744L192.525 15.4731L192.549 15.4844L192.574 15.4952L193.77 12.744ZM197.562 15.528L195.297 17.4951L195.31 17.51L195.324 17.5248L197.562 15.528ZM199.962 19.752L197.116 20.7007L197.125 20.7256L197.133 20.7505L199.962 19.752ZM200.058 31.704L202.921 32.602L202.923 32.5941L202.926 32.5863L200.058 31.704ZM197.754 36.024L200.049 37.9564L200.061 37.9418L200.074 37.9269L197.754 36.024ZM193.962 38.856L192.739 36.117L192.728 36.1219L192.717 36.1269L193.962 38.856ZM183.45 38.664L182.044 41.314L182.066 41.3253L182.087 41.3363L183.45 38.664ZM179.706 34.968L177.065 36.3903L177.081 36.4208L177.099 36.4509L179.706 34.968ZM178.266 28.728L180.592 26.833L175.042 20.0217L175.267 28.8049L178.266 28.728ZM180.378 31.32H183.378V30.2525L182.704 29.425L180.378 31.32ZM180.378 48.6V51.6H183.378V48.6H180.378ZM189.258 31.8L190.922 34.2962L190.933 34.2893L190.943 34.2824L189.258 31.8ZM191.322 29.304L188.623 27.9952L188.607 28.0287L188.591 28.0626L191.322 29.304ZM191.322 22.152L188.606 23.4253L188.63 23.4771L188.657 23.5279L191.322 22.152ZM189.306 19.8L187.642 22.2962L187.675 22.3179L187.708 22.3387L189.306 19.8ZM183.258 19.656L181.88 16.9913L181.861 17.0013L181.842 17.0116L183.258 19.656ZM181.05 21.768L183.599 23.3501L181.05 21.768ZM181.098 29.976L178.616 31.6605L178.63 31.6816L178.645 31.7025L181.098 29.976ZM183.402 31.992L182.024 34.6567L182.061 34.6757L182.098 34.6937L183.402 31.992ZM174.642 48.6V12.504H168.642V48.6H174.642ZM171.642 15.504H178.554V9.504H171.642V15.504ZM175.554 12.504V23.928H181.554V12.504H175.554ZM178.554 20.928H177.786V26.928H178.554V20.928ZM180.784 24.039C180.868 21.7695 181.311 20.0112 181.996 18.6644L176.649 15.9436C175.478 18.2448 174.896 20.9025 174.788 23.817L180.784 24.039ZM181.977 18.7012C182.697 17.3329 183.608 16.4011 184.693 15.7839L181.727 10.5681C179.549 11.8069 177.867 13.6271 176.668 15.9068L181.977 18.7012ZM184.731 15.7618C185.851 15.1034 187.186 14.736 188.826 14.736V8.736C186.243 8.736 183.834 9.32862 181.689 10.5902L184.731 15.7618ZM188.826 14.736C190.275 14.736 191.491 15.001 192.525 15.4731L195.016 10.0149C193.106 9.14295 191.025 8.736 188.826 8.736V14.736ZM192.574 15.4952C193.634 15.9562 194.534 16.6157 195.297 17.4951L199.827 13.5609C198.479 12.0083 196.85 10.8118 194.967 9.99279L192.574 15.4952ZM195.324 17.5248C196.086 18.3795 196.69 19.4228 197.116 20.7007L202.808 18.8033C202.146 16.8172 201.151 15.0445 199.801 13.5312L195.324 17.5248ZM197.133 20.7505C197.583 22.0235 197.826 23.4731 197.826 25.128H203.826C203.826 22.8789 203.494 20.7445 202.791 18.7535L197.133 20.7505ZM197.826 25.128V26.28H203.826V25.128H197.826ZM197.826 26.28C197.826 27.9687 197.605 29.4758 197.191 30.8217L202.926 32.5863C203.536 30.6042 203.826 28.4953 203.826 26.28H197.826ZM197.196 30.806C196.792 32.0934 196.201 33.1875 195.435 34.121L200.074 37.9269C201.356 36.3645 202.301 34.5786 202.921 32.602L197.196 30.806ZM195.46 34.0916C194.738 34.9487 193.845 35.6227 192.739 36.117L195.186 41.595C197.088 40.7453 198.723 39.5313 200.049 37.9564L195.46 34.0916ZM192.717 36.1269C191.702 36.5902 190.444 36.864 188.874 36.864V42.864C191.145 42.864 193.279 42.4658 195.208 41.5851L192.717 36.1269ZM188.874 36.864C187.223 36.864 185.896 36.5436 184.814 35.9917L182.087 41.3363C184.141 42.3844 186.43 42.864 188.874 42.864V36.864ZM184.857 36.014C183.821 35.4647 182.978 34.6517 182.314 33.4851L177.099 36.4509C178.291 38.5483 179.943 40.1993 182.044 41.314L184.857 36.014ZM182.348 33.5457C181.735 32.4071 181.321 30.8218 181.265 28.6511L175.267 28.8049C175.34 31.6262 175.886 34.2009 177.065 36.3903L182.348 33.5457ZM175.941 30.623L178.053 33.215L182.704 29.425L180.592 26.833L175.941 30.623ZM177.378 31.32V48.6H183.378V31.32H177.378ZM180.378 45.6H171.642V51.6H180.378V45.6ZM186.234 35.664C187.911 35.664 189.512 35.2361 190.922 34.2962L187.594 29.3038C187.276 29.5159 186.861 29.664 186.234 29.664V35.664ZM190.943 34.2824C192.328 33.3426 193.362 32.0662 194.053 30.5454L188.591 28.0626C188.323 28.6538 187.981 29.0414 187.574 29.3176L190.943 34.2824ZM194.022 30.6128C194.759 29.0934 195.09 27.4354 195.09 25.704H189.09C189.09 26.6606 188.91 27.4026 188.623 27.9952L194.022 30.6128ZM195.09 25.704C195.09 23.9588 194.765 22.2812 193.988 20.7761L188.657 23.5279C188.904 24.0068 189.09 24.6972 189.09 25.704H195.09ZM194.039 20.8787C193.342 19.3925 192.306 18.1438 190.905 17.2613L187.708 22.3387C188.034 22.5442 188.343 22.8635 188.606 23.4253L194.039 20.8787ZM190.97 17.3038C189.547 16.3548 187.925 15.936 186.234 15.936V21.936C186.912 21.936 187.338 22.0932 187.642 22.2962L190.97 17.3038ZM186.234 15.936C184.704 15.936 183.239 16.2885 181.88 16.9913L184.637 22.3207C185.134 22.0635 185.653 21.936 186.234 21.936V15.936ZM181.842 17.0116C180.447 17.7587 179.334 18.845 178.501 20.1859L183.599 23.3501C183.919 22.835 184.278 22.5133 184.675 22.3004L181.842 17.0116ZM178.501 20.1859C177.576 21.6768 177.186 23.3702 177.186 25.128H183.186C183.186 24.2618 183.373 23.7152 183.599 23.3501L178.501 20.1859ZM177.186 25.128V26.76H183.186V25.128H177.186ZM177.186 26.76C177.186 28.5143 177.621 30.1948 178.616 31.6605L183.581 28.2915C183.359 27.9652 183.186 27.5017 183.186 26.76H177.186ZM178.645 31.7025C179.527 32.9565 180.663 33.9524 182.024 34.6567L184.781 29.3273C184.286 29.0716 183.885 28.7235 183.552 28.2495L178.645 31.7025ZM182.098 34.6937C183.402 35.3233 184.79 35.664 186.234 35.664V29.664C185.759 29.664 185.258 29.5567 184.707 29.2903L182.098 34.6937ZM211.147 38.808L209.928 41.5494L211.147 38.808ZM206.779 35.688L209.006 33.6781V33.6781L206.779 35.688ZM204.043 31.272L201.232 32.3193L201.24 32.3434L201.25 32.3673L204.043 31.272ZM204.043 20.136L201.243 19.0591L201.237 19.0738L201.232 19.0887L204.043 20.136ZM206.731 15.72L204.528 13.6829L204.515 13.6979L204.501 13.7131L206.731 15.72ZM211.051 12.696L212.245 15.448L212.267 15.4386L212.288 15.4289L211.051 12.696ZM224.059 13.464L222.432 15.9849L224.059 13.464ZM228.619 18.552L225.935 19.8936L225.94 19.9019L225.944 19.9101L228.619 18.552ZM230.203 28.152V31.152H233.203V28.152H230.203ZM206.779 28.152H203.779V31.152H206.779V28.152ZM206.779 23.448V20.448H203.779V23.448H206.779ZM225.163 23.448L226.881 25.9075L234.698 20.448H225.163V23.448ZM222.139 25.56H219.139V31.3145L223.857 28.0195L222.139 25.56ZM221.515 21.768L218.695 22.7932L218.714 22.8455L218.735 22.8971L221.515 21.768ZM219.739 19.368L218.005 21.8161L218.028 21.8327L218.052 21.8488L219.739 19.368ZM213.787 19.368L215.359 21.923L215.372 21.9149L215.385 21.9067L213.787 19.368ZM211.867 21.768L214.628 22.9396L214.635 22.925L214.641 22.9102L211.867 21.768ZM211.819 29.64L209.017 30.7114L209.022 30.7255L209.028 30.7396L211.819 29.64ZM213.739 32.088L215.403 29.5919V29.5918L213.739 32.088ZM220.075 32.328L218.691 29.6663L218.668 29.678L218.646 29.6901L220.075 32.328ZM221.755 30.648V27.648H219.823L219.024 29.4066L221.755 30.648ZM229.723 30.648L232.656 31.2766L233.434 27.648H229.723V30.648ZM227.419 35.448L225.097 33.5483L225.084 33.5643L225.071 33.5804L227.419 35.448ZM223.099 38.76L221.857 36.0289L221.848 36.0332L221.838 36.0376L223.099 38.76ZM217.099 36.96C215.202 36.96 213.645 36.6356 212.365 36.0666L209.928 41.5494C212.104 42.5164 214.515 42.96 217.099 42.96V36.96ZM212.365 36.0666C210.994 35.457 209.889 34.6569 209.006 33.6781L204.552 37.6979C206.036 39.3431 207.844 40.623 209.928 41.5494L212.365 36.0666ZM209.006 33.6781C208.062 32.6322 207.343 31.4695 206.836 30.1767L201.25 32.3673C202.023 34.3385 203.127 36.1198 204.552 37.6979L209.006 33.6781ZM206.854 30.2247C206.37 28.9251 206.131 27.5996 206.131 26.232H200.131C200.131 28.3204 200.5 30.3549 201.232 32.3193L206.854 30.2247ZM206.131 26.232V25.272H200.131V26.232H206.131ZM206.131 25.272C206.131 23.827 206.374 22.4705 206.854 21.1833L201.232 19.0887C200.495 21.0655 200.131 23.133 200.131 25.272H206.131ZM206.843 21.2129C207.356 19.8789 208.063 18.7247 208.961 17.7269L204.501 13.7131C203.095 15.2753 202.01 17.0651 201.243 19.0591L206.843 21.2129ZM208.933 17.7571C209.817 16.801 210.908 16.0284 212.245 15.448L209.856 9.94396C207.802 10.8356 206.012 12.079 204.528 13.6829L208.933 17.7571ZM212.288 15.4289C213.541 14.8617 215.029 14.544 216.811 14.544V8.544C214.304 8.544 211.953 8.99431 209.813 9.96314L212.288 15.4289ZM216.811 14.544C219.202 14.544 221.025 15.077 222.432 15.9849L225.685 10.9431C223.124 9.29103 220.116 8.544 216.811 8.544V14.544ZM222.432 15.9849C223.965 16.9735 225.12 18.2622 225.935 19.8936L231.302 17.2104C230.006 14.6178 228.121 12.5145 225.685 10.9431L222.432 15.9849ZM225.944 19.9101C226.774 21.5456 227.203 23.3486 227.203 25.368H233.203C233.203 22.4594 232.575 19.7184 231.294 17.1939L225.944 19.9101ZM227.203 25.368V28.152H233.203V25.368H227.203ZM230.203 25.152H206.779V31.152H230.203V25.152ZM209.779 28.152V23.448H203.779V28.152H209.779ZM206.779 26.448H225.163V20.448H206.779V26.448ZM223.445 20.9885L220.421 23.1005L223.857 28.0195L226.881 25.9075L223.445 20.9885ZM225.139 25.56C225.139 23.7998 224.898 22.1256 224.294 20.6389L218.735 22.8971C218.963 23.4584 219.139 24.3122 219.139 25.56H225.139ZM224.334 20.7428C223.771 19.1936 222.827 17.8404 221.426 16.8872L218.052 21.8488C218.25 21.9836 218.491 22.2304 218.695 22.7932L224.334 20.7428ZM221.473 16.9199C220.08 15.9337 218.455 15.552 216.811 15.552V21.552C217.535 21.552 217.861 21.7143 218.005 21.8161L221.473 16.9199ZM216.811 15.552C215.168 15.552 213.59 15.9465 212.188 16.8293L215.385 21.9067C215.711 21.7015 216.15 21.552 216.811 21.552V15.552ZM212.214 16.813C210.74 17.7205 209.732 19.0743 209.093 20.6257L214.641 22.9102C214.898 22.2857 215.17 22.0395 215.359 21.923L212.214 16.813ZM209.105 20.5963C208.448 22.1446 208.195 23.9228 208.195 25.8H214.195C214.195 24.4132 214.389 23.5034 214.628 22.9396L209.105 20.5963ZM208.195 25.8C208.195 27.5456 208.44 29.2044 209.017 30.7114L214.621 28.5686C214.365 27.8996 214.195 26.9984 214.195 25.8H208.195ZM209.028 30.7396C209.646 32.3097 210.654 33.6369 212.075 34.5842L215.403 29.5918C215.096 29.3871 214.823 29.0823 214.61 28.5404L209.028 30.7396ZM212.075 34.5841C213.568 35.5799 215.32 35.952 217.099 35.952V29.952C216.126 29.952 215.637 29.7481 215.403 29.5919L212.075 34.5841ZM217.099 35.952C218.628 35.952 220.159 35.6944 221.504 34.9659L218.646 29.6901C218.455 29.7936 218.001 29.952 217.099 29.952V35.952ZM221.459 34.9897C222.751 34.3178 223.844 33.3021 224.486 31.8894L219.024 29.4066C219.016 29.4232 219.005 29.4428 218.973 29.4747C218.938 29.5103 218.856 29.5805 218.691 29.6663L221.459 34.9897ZM221.755 33.648H229.723V27.648H221.755V33.648ZM226.789 30.0194C226.504 31.3487 225.945 32.5122 225.097 33.5483L229.741 37.3477C231.197 35.5678 232.173 33.5313 232.656 31.2766L226.789 30.0194ZM225.071 33.5804C224.268 34.5898 223.218 35.4102 221.857 36.0289L224.34 41.4911C226.499 40.5098 228.329 39.1222 229.767 37.3156L225.071 33.5804ZM221.838 36.0376C220.574 36.6228 219.018 36.96 217.099 36.96V42.96C219.723 42.96 222.167 42.4972 224.359 41.4824L221.838 36.0376ZM233.847 39H230.847V42H233.847V39ZM233.847 12.504V9.504H230.847V12.504H233.847ZM240.759 12.504H243.759V9.504H240.759V12.504ZM240.759 24.024V27.024H243.759V24.024H240.759ZM240.663 24.024H237.663V27.024H240.663V24.024ZM242.967 15.288L240.559 13.4997L240.55 13.5115L240.541 13.5235L242.967 15.288ZM250.743 12.12H253.743V9.12H250.743V12.12ZM250.743 19.608V22.608H253.743V19.608H250.743ZM244.167 21.192L242.078 19.0393L242.062 19.0548L242.046 19.0707L244.167 21.192ZM242.583 39V42H245.583V39H242.583ZM236.847 39V12.504H230.847V39H236.847ZM233.847 15.504H240.759V9.504H233.847V15.504ZM237.759 12.504V24.024H243.759V12.504H237.759ZM240.759 21.024H240.663V27.024H240.759V21.024ZM243.663 24.024C243.663 20.6877 244.358 18.4763 245.394 17.0525L240.541 13.5235C238.505 16.3237 237.663 19.9363 237.663 24.024H243.663ZM245.376 17.0763C246.312 15.8161 247.607 15.12 249.687 15.12V9.12C245.943 9.12 242.759 10.5359 240.559 13.4997L245.376 17.0763ZM249.687 15.12H250.743V9.12H249.687V15.12ZM247.743 12.12V19.608H253.743V12.12H247.743ZM250.743 16.608H248.727V22.608H250.743V16.608ZM248.727 16.608C246.229 16.608 243.873 17.2965 242.078 19.0393L246.257 23.3447C246.637 22.9755 247.322 22.608 248.727 22.608V16.608ZM242.046 19.0707C240.261 20.8553 239.583 23.2427 239.583 25.752H245.583C245.583 24.2933 245.961 23.6407 246.289 23.3133L242.046 19.0707ZM239.583 25.752V39H245.583V25.752H239.583ZM242.583 36H233.847V42H242.583V36Z" fill="black" mask="url(#path-1-outside-1_181_1063)"/>
</svg>
